<svg width="318" height="234" viewBox="0 0 318 234" fill="none" xmlns="http://www.w3.org/2000/svg">
<path d="M92.4678 30.4973C92.4678 26.3641 93.2468 22.5029 94.8049 18.9105C96.3629 15.3216 98.4857 12.202 101.17 9.55539C103.85 6.90873 106.99 4.80637 110.579 3.24491C114.172 1.68685 118.033 0.904419 122.166 0.904419C126.299 0.904419 130.164 1.68345 133.753 3.24491C137.342 4.80637 140.461 6.90873 143.108 9.55539C145.755 12.202 147.857 15.3216 149.419 18.9105C150.977 22.4995 151.756 26.3641 151.756 30.4973V57.8042H139.135V54.7561C134.202 58.3111 128.545 60.0869 122.163 60.0869C117.665 60.0869 113.583 59.3248 109.923 57.8042C106.259 56.2802 103.139 54.1778 100.568 51.4937C97.9924 48.8096 95.9989 45.6731 94.5837 42.0841C93.172 38.4951 92.4678 34.634 92.4678 30.4973ZM105.085 30.4973C105.085 32.8208 105.538 35.0116 106.449 37.08C107.361 39.1483 108.576 40.9445 110.106 42.4651C111.637 43.9858 113.434 45.2037 115.509 46.1086C117.584 47.0169 119.785 47.4693 122.115 47.4693C124.442 47.4693 126.643 47.0543 128.715 46.2174C130.79 45.384 132.589 44.2035 134.117 42.6829C135.644 41.1588 136.866 39.366 137.774 37.2977C138.686 35.2294 139.138 32.9637 139.138 30.4973C139.138 28.1773 138.682 25.9831 137.774 23.9147C136.866 21.8464 135.648 20.0536 134.117 18.5295C132.589 17.0055 130.79 15.791 128.715 14.8861C126.64 13.9812 124.442 13.5254 122.115 13.5254C119.785 13.5254 117.584 13.9778 115.509 14.8861C113.434 15.7944 111.634 17.0089 110.106 18.5295C108.579 20.0536 107.361 21.8464 106.449 23.9147C105.538 25.9831 105.085 28.1773 105.085 30.4973Z" fill="#2A72C7"/>
<path d="M3.17986 18.9105C4.74132 15.3216 6.84366 12.202 9.49032 9.55539C12.1404 6.90873 15.2565 4.80637 18.8455 3.24491C22.4379 1.68685 26.299 0.904419 30.4323 0.904419C34.5656 0.904419 38.4301 1.68345 42.0191 3.24491C45.608 4.80637 48.748 6.90873 51.4286 9.55539C54.1127 12.202 56.2355 15.3216 57.7935 18.9105C59.3516 22.4995 60.1306 26.3607 60.1306 30.4973H47.5165C47.5165 28.1773 47.064 25.983 46.1523 23.9147C45.2406 21.8464 44.0262 20.0536 42.4953 18.5295C40.9679 17.0055 39.1683 15.791 37.0931 14.8861C35.018 13.9812 32.817 13.5254 30.4867 13.5254C28.1598 13.5254 25.9588 13.9778 23.8871 14.8861C21.8119 15.7944 20.0123 17.0089 18.4849 18.5295C16.9575 20.0536 15.7362 21.8464 14.8279 23.9147C13.9162 25.983 13.4637 28.1773 13.4637 30.4973V54.7595V57.8076H0.842773V30.5007C0.842773 26.3641 1.6218 22.5029 3.17986 18.9105Z" fill="#2A72C7"/>
<path d="M83.9393 3.40833H71.1006V66.9384H83.9393V3.40833Z" fill="#2A72C7"/>
<path d="M79.9569 66.9349H71.1052H64.7947H51.9561C51.9561 69.1121 52.3371 71.1771 53.0991 73.1366C53.8611 75.096 54.9497 76.797 56.3615 78.2496C57.7766 79.6988 59.464 80.8418 61.4235 81.6753C63.3795 82.5087 65.5567 82.9272 67.9516 82.9272C70.2003 82.9272 72.3027 82.5836 74.2621 81.893C76.2216 81.2024 77.9055 80.1682 79.3207 78.7939C80.7359 77.4161 81.8585 75.7288 82.692 73.7353C83.5255 71.7384 83.9439 69.4727 83.9439 66.9349H79.9569Z" fill="#2A72C7"/>
<path d="M30.7007 38.2946C33.0208 38.2946 34.9429 37.5326 36.4669 36.0085C37.9909 34.4879 38.753 32.6373 38.753 30.4601C38.753 28.14 37.9909 26.2179 36.4669 24.6939C34.9463 23.1699 33.0242 22.4078 30.7007 22.4078C28.5235 22.4078 26.6763 23.1699 25.1523 24.6939C23.6282 26.2179 22.8662 28.14 22.8662 30.4601C22.8662 32.6373 23.6282 34.4845 25.1523 36.0085C26.6729 37.5326 28.5235 38.2946 30.7007 38.2946Z" fill="#F05E00"/>
<path d="M122.003 38.2946C124.324 38.2946 126.246 37.5326 127.77 36.0085C129.294 34.4879 130.056 32.6373 130.056 30.4601C130.056 28.14 129.294 26.2179 127.77 24.6939C126.249 23.1699 124.327 22.4078 122.003 22.4078C119.826 22.4078 117.979 23.1699 116.455 24.6939C114.931 26.2179 114.169 28.14 114.169 30.4601C114.169 32.6373 114.931 34.4845 116.455 36.0085C117.979 37.5326 119.83 38.2946 122.003 38.2946Z" fill="#F05E00"/>
<path d="M53.2244 104.397C48.5604 102.427 44.519 99.6748 41.2191 96.2117C37.8921 92.7213 35.3101 88.7854 33.5445 84.5194C31.7755 80.2501 30.857 75.6541 30.8094 70.8575C30.7686 66.9147 31.4285 62.9651 32.7655 59.0768L43.3079 63.5264C42.5867 65.9077 42.2397 68.3503 42.2771 70.8167C42.3281 74.1165 42.9575 77.27 44.1515 80.1922C45.3456 83.1178 47.101 85.8155 49.3734 88.2104C51.6731 90.6326 54.4388 92.5376 57.589 93.8678C60.7391 95.1979 64.0287 95.8511 67.3659 95.8102C70.6692 95.766 73.8261 95.1469 76.7551 93.9596C79.6909 92.7724 82.3955 91.0238 84.7836 88.7616C86.1886 87.4348 87.4302 85.921 88.4916 84.2439L99.1157 88.7275C97.3807 91.8539 95.2477 94.6332 92.7542 97.0111C89.2706 100.328 85.3517 102.886 81.1061 104.614C76.8572 106.339 72.2647 107.237 67.4578 107.288C62.6782 107.339 57.8883 106.363 53.2244 104.397Z" fill="#F05E00"/>
<path d="M122.061 60.1924C117.927 60.1924 114.066 59.4134 110.474 57.8553C106.885 56.2972 103.765 54.1745 101.119 51.4904C98.4721 48.8097 96.3697 45.6698 94.8083 42.0808C93.2502 38.4884 92.4678 34.6273 92.4678 30.494C92.4678 26.3607 93.2468 22.4962 94.8083 18.9072C96.3697 15.3182 98.4721 12.1987 101.119 9.55205C103.765 6.9054 106.885 4.80302 110.474 3.24156C114.063 1.6835 117.927 0.904471 122.061 0.904471L149.368 0.90447L149.368 13.5255L146.319 13.5255C149.874 18.4582 151.65 24.1155 151.65 30.4974C151.65 34.9947 150.888 39.077 149.368 42.7374C147.844 46.4012 145.741 49.5207 143.057 52.0925C140.373 54.6678 137.236 56.6612 133.647 58.0764C130.058 59.4882 126.197 60.1924 122.061 60.1924ZM122.061 47.5748C124.384 47.5748 126.575 47.1224 128.643 46.2107C130.712 45.299 132.508 44.0845 134.028 42.5537C135.549 41.0228 136.767 39.2266 137.672 37.1515C138.58 35.0763 139.033 32.8753 139.033 30.545C139.033 28.2181 138.618 26.0172 137.781 23.9454C136.947 21.8703 135.767 20.0707 134.246 18.5432C132.722 17.0158 130.929 15.7945 128.861 14.8862C126.793 13.9745 124.527 13.5221 122.061 13.5221C119.741 13.5221 117.546 13.9779 115.478 14.8862C113.41 15.7945 111.617 17.0124 110.093 18.5432C108.569 20.0707 107.354 21.8703 106.449 23.9454C105.545 26.0206 105.089 28.2181 105.089 30.545C105.089 32.8753 105.541 35.0763 106.449 37.1515C107.358 39.2266 108.572 41.0262 110.093 42.5537C111.617 44.0811 113.41 45.299 115.478 46.2107C117.546 47.1224 119.741 47.5748 122.061 47.5748Z" fill="#2A72C7"/>
<path d="M110.474 149.48C106.885 147.919 103.765 145.816 101.119 143.17C98.4721 140.52 96.3697 137.404 94.8083 133.815C93.2502 130.222 92.4678 126.361 92.4678 122.228C92.4678 118.095 93.2468 114.23 94.8083 110.641C96.3697 107.052 98.4721 103.912 101.119 101.232C103.765 98.5474 106.885 96.4247 110.474 94.8666C114.063 93.3085 117.924 92.5295 122.061 92.5295L122.061 105.144C119.741 105.144 117.546 105.596 115.478 106.508C113.41 107.42 111.617 108.634 110.093 110.165C108.569 111.692 107.354 113.492 106.449 115.567C105.545 117.642 105.089 119.843 105.089 122.173C105.089 124.5 105.541 126.701 106.449 128.773C107.358 130.848 108.572 132.648 110.093 134.175C111.617 135.703 113.41 136.924 115.478 137.832C117.546 138.744 119.741 139.196 122.061 139.196L146.323 139.196L149.371 139.196L149.371 151.817L122.064 151.817C117.927 151.817 114.066 151.038 110.474 149.48Z" fill="#2A72C7"/>
<path d="M94.9717 68.7209L94.9717 81.5596L158.502 81.5596L158.502 68.7209L94.9717 68.7209Z" fill="#2A72C7"/>
<path d="M158.498 72.7033L158.498 81.555L158.498 87.8654L158.498 100.704C160.675 100.704 162.74 100.323 164.7 99.5611C166.659 98.7991 168.36 97.7105 169.813 96.2987C171.262 94.8835 172.405 93.1962 173.238 91.2367C174.072 89.2806 174.49 87.1034 174.49 84.7085C174.49 82.4599 174.147 80.3575 173.456 78.398C172.766 76.4385 171.731 74.7546 170.357 73.3394C168.979 71.9242 167.292 70.8016 165.298 69.9682C163.301 69.1347 161.036 68.7163 158.498 68.7163L158.498 72.7033Z" fill="#2A72C7"/>
<path d="M129.858 121.959C129.858 119.639 129.096 117.717 127.572 116.193C126.052 114.669 124.201 113.907 122.024 113.907C119.704 113.907 117.782 114.669 116.258 116.193C114.734 117.714 113.972 119.636 113.972 121.959C113.972 124.137 114.734 125.984 116.258 127.508C117.782 129.032 119.704 129.794 122.024 129.794C124.201 129.794 126.048 129.032 127.572 127.508C129.096 125.987 129.858 124.137 129.858 121.959Z" fill="#F05E00"/>
<path d="M129.858 30.6567C129.858 28.3366 129.096 26.4146 127.572 24.8905C126.051 23.3665 124.201 22.6045 122.023 22.6045C119.703 22.6045 117.781 23.3665 116.257 24.8905C114.733 26.4112 113.971 28.3332 113.971 30.6567C113.971 32.8339 114.733 34.6811 116.257 36.2052C117.781 37.7292 119.703 38.4912 122.023 38.4912C124.201 38.4912 126.048 37.7292 127.572 36.2052C129.096 34.6811 129.858 32.8305 129.858 30.6567Z" fill="#F05E00"/>
<path d="M195.959 99.4358C193.99 104.1 191.238 108.141 187.775 111.441C184.284 114.768 180.348 117.35 176.082 119.116C171.813 120.885 167.217 121.803 162.42 121.851C158.478 121.892 154.528 121.232 150.64 119.895L155.089 109.352C157.471 110.073 159.913 110.42 162.38 110.383C165.679 110.332 168.833 109.703 171.755 108.509C174.681 107.315 177.378 105.559 179.773 103.287C182.195 100.987 184.1 98.2213 185.431 95.0712C186.761 91.9211 187.414 88.6314 187.373 85.2942C187.329 81.991 186.71 78.8341 185.522 75.905C184.335 72.9692 182.587 70.2647 180.324 67.8766C178.998 66.4716 177.484 65.2299 175.807 64.1686L180.29 53.5445C183.417 55.2794 186.196 57.4124 188.574 59.906C191.891 63.3895 194.449 67.3085 196.177 71.554C197.902 75.803 198.8 80.3955 198.851 85.2023C198.902 89.982 197.926 94.7718 195.959 99.4358Z" fill="#F05E00"/>
<path d="M258.12 156.303C258.12 152.17 258.899 148.308 260.457 144.716C262.015 141.127 264.138 138.008 266.822 135.361C269.503 132.714 272.643 130.612 276.232 129.05C279.824 127.492 283.685 126.71 287.818 126.71C291.952 126.71 295.816 127.489 299.405 129.05C302.994 130.612 306.114 132.714 308.76 135.361C311.407 138.008 313.509 141.127 315.071 144.716C316.629 148.305 317.408 152.17 317.408 156.303V183.61H304.787V180.562C299.854 184.117 294.197 185.892 287.815 185.892C283.318 185.892 279.236 185.13 275.575 183.61C271.911 182.086 268.792 179.983 266.22 177.299C263.645 174.615 261.651 171.479 260.236 167.89C258.824 164.301 258.12 160.44 258.12 156.303ZM270.738 156.303C270.738 158.626 271.19 160.817 272.102 162.886C273.014 164.954 274.228 166.75 275.759 168.271C277.29 169.791 279.086 171.009 281.161 171.914C283.236 172.822 285.437 173.275 287.767 173.275C290.094 173.275 292.295 172.86 294.367 172.023C296.442 171.189 298.242 170.009 299.769 168.488C301.297 166.964 302.518 165.172 303.426 163.103C304.338 161.035 304.79 158.769 304.79 156.303C304.79 153.983 304.335 151.789 303.426 149.72C302.518 147.652 301.3 145.859 299.769 144.335C298.242 142.811 296.442 141.597 294.367 140.692C292.292 139.787 290.094 139.331 287.767 139.331C285.437 139.331 283.236 139.783 281.161 140.692C279.086 141.6 277.286 142.814 275.759 144.335C274.231 145.859 273.014 147.652 272.102 149.72C271.19 151.789 270.738 153.983 270.738 156.303Z" fill="#2A72C7"/>
<path d="M168.832 144.716C170.394 141.127 172.496 138.008 175.143 135.361C177.793 132.714 180.909 130.612 184.498 129.05C188.09 127.492 191.951 126.71 196.085 126.71C200.218 126.71 204.082 127.489 207.671 129.05C211.26 130.612 214.4 132.714 217.081 135.361C219.765 138.008 221.888 141.127 223.446 144.716C225.004 148.305 225.783 152.166 225.783 156.303H213.169C213.169 153.983 212.716 151.789 211.805 149.72C210.893 147.652 209.679 145.859 208.148 144.335C206.62 142.811 204.821 141.597 202.745 140.692C200.67 139.787 198.469 139.331 196.139 139.331C193.812 139.331 191.611 139.783 189.539 140.692C187.464 141.6 185.665 142.814 184.137 144.335C182.61 145.859 181.389 147.652 180.48 149.72C179.569 151.789 179.116 153.983 179.116 156.303V180.565V183.613H166.495V156.306C166.495 152.17 167.274 148.308 168.832 144.716Z" fill="#2A72C7"/>
<path d="M249.592 129.214H236.753V192.744H249.592V129.214Z" fill="#2A72C7"/>
<path d="M245.609 192.74H236.758H230.447H217.608C217.608 194.918 217.989 196.983 218.751 198.942C219.513 200.902 220.602 202.603 222.014 204.055C223.429 205.504 225.116 206.647 227.076 207.481C229.032 208.314 231.209 208.733 233.604 208.733C235.853 208.733 237.955 208.389 239.914 207.699C241.874 207.008 243.558 205.974 244.973 204.599C246.388 203.222 247.511 201.534 248.344 199.541C249.178 197.544 249.596 195.278 249.596 192.74H245.609Z" fill="#2A72C7"/>
<path d="M196.353 164.1C198.673 164.1 200.595 163.338 202.119 161.814C203.643 160.293 204.405 158.443 204.405 156.266C204.405 153.946 203.643 152.023 202.119 150.499C200.599 148.975 198.677 148.213 196.353 148.213C194.176 148.213 192.329 148.975 190.805 150.499C189.281 152.023 188.519 153.946 188.519 156.266C188.519 158.443 189.281 160.29 190.805 161.814C192.325 163.338 194.176 164.1 196.353 164.1Z" fill="#F05E00"/>
<path d="M287.656 164.1C289.976 164.1 291.898 163.338 293.422 161.814C294.946 160.293 295.708 158.443 295.708 156.266C295.708 153.946 294.946 152.023 293.422 150.499C291.901 148.975 289.979 148.213 287.656 148.213C285.479 148.213 283.631 148.975 282.107 150.499C280.583 152.023 279.821 153.946 279.821 156.266C279.821 158.443 280.583 160.29 282.107 161.814C283.631 163.338 285.482 164.1 287.656 164.1Z" fill="#F05E00"/>
<path d="M218.877 230.202C214.213 228.232 210.171 225.48 206.871 222.017C203.544 218.527 200.962 214.591 199.197 210.325C197.428 206.056 196.509 201.46 196.462 196.663C196.421 192.72 197.081 188.771 198.418 184.882L208.96 189.332C208.239 191.713 207.892 194.156 207.929 196.622C207.98 199.922 208.61 203.076 209.804 205.998C210.998 208.923 212.753 211.621 215.026 214.016C217.325 216.438 220.091 218.343 223.241 219.673C226.391 221.003 229.681 221.657 233.018 221.616C236.322 221.572 239.478 220.952 242.407 219.765C245.343 218.578 248.048 216.829 250.436 214.567C251.841 213.24 253.083 211.727 254.144 210.049L264.768 214.533C263.033 217.659 260.9 220.439 258.406 222.817C254.923 226.133 251.004 228.692 246.758 230.42C242.51 232.145 237.917 233.043 233.11 233.094C228.331 233.145 223.541 232.168 218.877 230.202Z" fill="#F05E00"/>
<path d="M287.814 126.798C291.948 126.798 295.809 127.577 299.401 129.136C302.99 130.694 306.11 132.816 308.756 135.5C311.403 138.181 313.505 141.321 315.067 144.91C316.625 148.502 317.407 152.364 317.407 156.497C317.407 160.63 316.628 164.495 315.067 168.084C313.505 171.673 311.403 174.792 308.756 177.439C306.11 180.085 302.99 182.188 299.401 183.749C295.812 185.307 291.948 186.086 287.814 186.086L260.507 186.086L260.507 173.465L263.556 173.465C260.001 168.533 258.225 162.875 258.225 156.493C258.225 151.996 258.987 147.914 260.507 144.253C262.031 140.59 264.134 137.47 266.818 134.898C269.502 132.323 272.639 130.33 276.228 128.914C279.817 127.503 283.678 126.798 287.814 126.798ZM287.814 139.416C285.491 139.416 283.3 139.868 281.232 140.78C279.163 141.692 277.367 142.906 275.847 144.437C274.326 145.968 273.108 147.764 272.203 149.839C271.295 151.915 270.842 154.116 270.842 156.446C270.842 158.773 271.257 160.974 272.094 163.045C272.928 165.121 274.108 166.92 275.629 168.448C277.153 169.975 278.946 171.196 281.014 172.105C283.082 173.016 285.348 173.469 287.814 173.469C290.134 173.469 292.329 173.013 294.397 172.105C296.465 171.196 298.258 169.978 299.782 168.448C301.306 166.92 302.521 165.121 303.426 163.045C304.33 160.97 304.786 158.773 304.786 156.446C304.786 154.116 304.334 151.915 303.426 149.839C302.517 147.764 301.303 145.965 299.782 144.437C298.258 142.91 296.465 141.692 294.397 140.78C292.329 139.868 290.134 139.416 287.814 139.416Z" fill="#2A72C7"/>
<path d="M299.401 37.5105C302.99 39.072 306.11 41.1743 308.756 43.821C311.403 46.4711 313.505 49.5872 315.067 53.1762C316.625 56.7685 317.407 60.6297 317.407 64.763C317.407 68.8963 316.628 72.7608 315.067 76.3497C313.505 79.9387 311.403 83.0787 308.756 85.7593C306.11 88.4434 302.99 90.5662 299.401 92.1242C295.812 93.6823 291.951 94.4613 287.814 94.4613L287.814 81.8472C290.134 81.8472 292.329 81.3947 294.397 80.483C296.465 79.5713 298.258 78.3569 299.782 76.826C301.306 75.2986 302.521 73.499 303.426 71.4238C304.33 69.3487 304.786 67.1477 304.786 64.8174C304.786 62.4905 304.334 60.2895 303.426 58.2178C302.517 56.1426 301.303 54.343 299.782 52.8156C298.258 51.2881 296.465 50.0669 294.397 49.1586C292.329 48.2469 290.134 47.7944 287.814 47.7944L263.552 47.7944L260.504 47.7944L260.504 35.1735L287.811 35.1735C291.948 35.1735 295.809 35.9525 299.401 37.5105Z" fill="#2A72C7"/>
<path d="M314.903 118.27L314.903 105.431L251.373 105.431L251.373 118.27L314.903 118.27Z" fill="#2A72C7"/>
<path d="M251.376 114.288L251.376 105.436L251.376 99.1254L251.376 86.2867C249.199 86.2867 247.134 86.6677 245.175 87.4298C243.215 88.1918 241.514 89.2804 240.062 90.6922C238.613 92.1073 237.47 93.7947 236.636 95.7541C235.803 97.7102 235.384 99.8874 235.384 102.282C235.384 104.531 235.728 106.633 236.418 108.593C237.109 110.552 238.143 112.236 239.518 113.651C240.895 115.067 242.583 116.189 244.576 117.023C246.573 117.856 248.839 118.275 251.376 118.275L251.376 114.288Z" fill="#2A72C7"/>
<path d="M280.017 65.0315C280.017 67.3516 280.779 69.2737 282.303 70.7977C283.824 72.3218 285.674 73.0838 287.852 73.0838C290.172 73.0838 292.094 72.3218 293.618 70.7977C295.142 69.2771 295.904 67.355 295.904 65.0315C295.904 62.8543 295.142 61.0071 293.618 59.4831C292.094 57.959 290.172 57.197 287.852 57.197C285.674 57.197 283.827 57.959 282.303 59.4831C280.779 61.0037 280.017 62.8543 280.017 65.0315Z" fill="#F05E00"/>
<path d="M280.018 156.334C280.018 158.654 280.78 160.576 282.304 162.1C283.825 163.624 285.675 164.386 287.853 164.387C290.173 164.387 292.095 163.624 293.619 162.1C295.143 160.58 295.905 158.658 295.905 156.334C295.905 154.157 295.143 152.31 293.619 150.786C292.095 149.262 290.173 148.5 287.853 148.5C285.675 148.5 283.828 149.262 282.304 150.786C280.78 152.31 280.018 154.16 280.018 156.334Z" fill="#F05E00"/>
<path d="M213.914 87.5552C215.884 82.8912 218.636 78.8498 222.099 75.5499C225.589 72.2229 229.525 69.6409 233.791 67.8753C238.061 66.1064 242.657 65.1878 247.453 65.1402C251.396 65.0994 255.346 65.7594 259.234 67.0963L254.784 77.6387C252.403 76.9175 249.96 76.5705 247.494 76.6079C244.194 76.659 241.041 77.2883 238.118 78.4824C235.193 79.6764 232.495 81.4318 230.1 83.7042C227.678 86.0039 225.773 88.7696 224.443 91.9198C223.113 95.0699 222.46 98.3595 222.5 101.697C222.545 105 223.164 108.157 224.351 111.086C225.538 114.022 227.287 116.726 229.549 119.114C230.876 120.519 232.39 121.761 234.067 122.822L229.583 133.446C226.457 131.712 223.677 129.579 221.3 127.085C217.983 123.601 215.425 119.682 213.696 115.437C211.972 111.188 211.074 106.595 211.022 101.789C210.971 97.009 211.948 92.2191 213.914 87.5552Z" fill="#F05E00"/>
</svg>
