<svg width="257" height="256" viewBox="0 0 257 256" fill="none" xmlns="http://www.w3.org/2000/svg">
<path fill-rule="evenodd" clip-rule="evenodd" d="M192.217 192C156.872 192 128.22 163.348 128.219 128.003L192.217 128.003L192.217 192Z" fill="#175F6D"/>
<path fill-rule="evenodd" clip-rule="evenodd" d="M192.219 191.999C227.563 191.999 256.216 163.347 256.217 128.003L192.219 128.003L192.219 191.999Z" fill="#175F6D"/>
<path fill-rule="evenodd" clip-rule="evenodd" d="M192.221 128.002C227.566 128.001 256.219 99.3486 256.219 64.0034L192.221 64.0034L192.221 128.002Z" fill="#175F6D"/>
<path fill-rule="evenodd" clip-rule="evenodd" d="M192.229 64.0016C192.229 28.6572 163.577 0.00500552 128.232 0.00402832L128.232 64.0016H192.229Z" fill="#2491A9"/>
<path fill-rule="evenodd" clip-rule="evenodd" d="M128.223 192.001C163.566 192.002 192.217 220.653 192.219 255.997L128.223 255.997L128.223 192.001Z" fill="#175F6D"/>
<path fill-rule="evenodd" clip-rule="evenodd" d="M256.216 256C256.215 220.655 227.563 192.003 192.219 192.002L192.219 256H256.216Z" fill="#2491A9"/>
<path fill-rule="evenodd" clip-rule="evenodd" d="M64.2139 256C64.2139 256 64.2139 256 64.2139 256C64.2139 220.655 35.5626 192.003 0.21875 192.001L0.218761 256L64.2139 256Z" fill="#2491A9"/>
<path fill-rule="evenodd" clip-rule="evenodd" d="M64.2199 192.002C64.2199 192.002 64.2199 192.002 64.2199 192.002C64.2199 156.658 92.8711 128.005 128.215 128.003L128.215 192.002L64.2199 192.002Z" fill="#F2BA01"/>
<path fill-rule="evenodd" clip-rule="evenodd" d="M0.224609 64.0037L64.2235 64.0037C64.2235 64.0038 64.2235 64.0038 64.2235 64.0039C64.2235 99.3493 35.5703 128.002 0.224754 128.002H0.224609L0.224609 64.0037Z" fill="#175F6D"/>
<path fill-rule="evenodd" clip-rule="evenodd" d="M64.2157 192.001C64.2152 156.657 35.5631 128.004 0.21875 128.003L0.21875 192.001H64.2157Z" fill="#F2BA01"/>
<path fill-rule="evenodd" clip-rule="evenodd" d="M128.211 64.0031L64.2121 64.0031C64.2123 99.3483 92.8654 128.001 128.211 128.001L128.211 128.001L128.211 64.0031Z" fill="#175F6D"/>
</svg>
