<svg width="256" height="256" viewBox="0 0 256 256" fill="none" xmlns="http://www.w3.org/2000/svg">
<path fill-rule="evenodd" clip-rule="evenodd" d="M191.997 191.996C191.997 191.996 191.997 191.996 191.997 191.996C156.652 191.996 127.999 163.344 127.998 127.999L191.997 127.999L191.997 191.996Z" fill="#2A72C7"/>
<path fill-rule="evenodd" clip-rule="evenodd" d="M63.9951 255.995C63.9951 255.995 63.9951 255.995 63.9951 255.995C63.9951 220.65 35.3433 191.997 -0.000976562 191.996L-0.000965373 255.995L63.9951 255.995Z" fill="#2A72C7"/>
<path fill-rule="evenodd" clip-rule="evenodd" d="M127.994 191.996L127.994 127.998C92.649 127.998 63.9962 156.651 63.9961 191.996L127.994 191.996Z" fill="#2A72C7"/>
<path fill-rule="evenodd" clip-rule="evenodd" d="M-0.00195312 63.999H63.9979C63.9979 63.9991 63.9979 63.9992 63.9979 63.9993C63.9979 99.3447 35.3447 127.998 -0.000831604 127.998H-0.00195312L-0.00195312 63.999Z" fill="#F2BA01"/>
<path fill-rule="evenodd" clip-rule="evenodd" d="M0.593905 127.999C0.593905 127.999 0.593905 127.999 0.593905 128C0.593908 163.345 29.2467 191.998 64.5918 191.998L64.5918 127.999L0.593905 127.999Z" fill="#F05E00"/>
<path fill-rule="evenodd" clip-rule="evenodd" d="M127.994 127.997L127.994 63.9989C92.6494 63.9997 63.9972 92.6525 63.9971 127.997L127.994 127.997Z" fill="#F2BA01"/>
<path fill-rule="evenodd" clip-rule="evenodd" d="M192.001 191.996C192.001 191.996 192.001 191.996 192.001 191.996C227.346 191.996 255.999 163.344 256 127.999L192.001 127.999L192.001 191.996Z" fill="#F05E00"/>
<path fill-rule="evenodd" clip-rule="evenodd" d="M255.998 127.997L255.998 63.9991C255.998 63.9991 255.998 63.9991 255.998 63.9991C220.652 63.9991 191.999 92.6521 191.999 127.997L255.998 127.997Z" fill="#2A72C7"/>
<path fill-rule="evenodd" clip-rule="evenodd" d="M127.994 -2.79748e-06L127.994 63.9985C127.994 63.9985 127.995 63.9985 127.995 63.9985C163.34 63.9985 191.993 35.3454 191.993 0L127.994 -2.79748e-06Z" fill="#F05E00"/>
<path fill-rule="evenodd" clip-rule="evenodd" d="M191.999 255.996L128 255.996C128 255.995 128 255.995 128 255.994C128 220.649 156.653 191.996 191.999 191.996L191.999 191.996L191.999 255.996Z" fill="#F05E00"/>
<path fill-rule="evenodd" clip-rule="evenodd" d="M191.997 255.994H255.996C255.995 220.65 227.342 191.997 191.997 191.997H191.997L191.997 255.994Z" fill="#2A72C7"/>
</svg>
