<svg width="257" height="256" viewBox="0 0 257 256" fill="none" xmlns="http://www.w3.org/2000/svg">
<path fill-rule="evenodd" clip-rule="evenodd" d="M192.203 192.001C156.859 192 128.206 163.348 128.205 128.004L192.203 128.004L192.203 192.001Z" fill="#F58D4D"/>
<path fill-rule="evenodd" clip-rule="evenodd" d="M192.203 192C227.548 192 256.2 163.348 256.201 128.004L192.203 128.004L192.203 192Z" fill="#F05E00"/>
<path fill-rule="evenodd" clip-rule="evenodd" d="M192.207 128.002C227.552 128.002 256.205 99.3493 256.205 64.0042L192.207 64.0041L192.207 128.002Z" fill="#F05E00"/>
<path fill-rule="evenodd" clip-rule="evenodd" d="M192.229 64.0023C192.229 28.658 163.577 0.00573794 128.232 0.00476074L128.232 64.0023H192.229Z" fill="#A78101"/>
<path fill-rule="evenodd" clip-rule="evenodd" d="M128.209 192.001C163.552 192.003 192.204 220.654 192.205 255.998L128.209 255.998L128.209 192.001Z" fill="#A78101"/>
<path fill-rule="evenodd" clip-rule="evenodd" d="M256.219 192.003C220.874 192.003 192.221 220.655 192.221 256L256.219 256L256.219 192.003Z" fill="#A78101"/>
<path fill-rule="evenodd" clip-rule="evenodd" d="M64.1992 192.005C28.8555 192.005 0.203539 220.656 0.201172 255.999L64.1992 255.999L64.1992 192.005Z" fill="#A78101"/>
<path fill-rule="evenodd" clip-rule="evenodd" d="M128.2 128.006C128.2 163.348 99.5509 192 64.209 192.004L64.209 128.006H128.2Z" fill="#F2BA01"/>
<path fill-rule="evenodd" clip-rule="evenodd" d="M64.207 128.005L0.208162 128.005C0.208162 128.004 0.208162 128.004 0.208162 128.003C0.208166 92.6575 28.8614 64.0044 64.2069 64.0044L64.207 64.0044L64.207 128.005Z" fill="#F05E00"/>
<path fill-rule="evenodd" clip-rule="evenodd" d="M64.2157 192.002C64.2152 156.657 35.5631 128.005 0.21875 128.004L0.21875 192.002H64.2157Z" fill="#F2BA01"/>
<path fill-rule="evenodd" clip-rule="evenodd" d="M64.1934 128.002H128.192C128.191 92.6573 99.5384 64.0051 64.1935 64.0051H64.1934L64.1934 128.002Z" fill="#F58D4D"/>
</svg>
