<svg width="292" height="195" viewBox="0 0 292 195" fill="none" xmlns="http://www.w3.org/2000/svg">
<path fill-rule="evenodd" clip-rule="evenodd" d="M243.383 97.2289C243.383 124.077 221.619 145.842 194.771 145.843L194.771 97.2289L243.383 97.2289Z" fill="#1D518B"/>
<path fill-rule="evenodd" clip-rule="evenodd" d="M146.152 194.457C146.152 194.457 146.152 194.457 146.152 194.456C146.152 167.608 124.388 145.843 97.5395 145.842L97.5395 194.457L146.152 194.457Z" fill="#2462A8"/>
<path fill-rule="evenodd" clip-rule="evenodd" d="M48.9213 194.456C48.9213 194.456 48.9214 194.456 48.9215 194.456C75.7698 194.456 97.5348 172.691 97.5357 145.843L48.9213 145.843L48.9213 194.456Z" fill="#2462A8"/>
<path fill-rule="evenodd" clip-rule="evenodd" d="M146.153 145.842L146.153 97.2281C173.002 97.2285 194.767 118.994 194.767 145.842L194.767 145.842L146.153 145.842Z" fill="#1D518B"/>
<path fill-rule="evenodd" clip-rule="evenodd" d="M146.153 145.842L146.153 97.2281C173.002 97.2285 194.767 118.994 194.767 145.842L194.767 145.842L146.153 145.842Z" fill="#2462A8"/>
<path fill-rule="evenodd" clip-rule="evenodd" d="M48.9225 97.2285L97.5368 97.2285C97.5363 124.077 75.7712 145.842 48.9226 145.842L48.9225 145.842L48.9225 97.2285Z" fill="#2462A8"/>
<path fill-rule="evenodd" clip-rule="evenodd" d="M146.153 48.6143L146.153 97.2289C146.153 97.2289 146.153 97.2289 146.153 97.2289C119.304 97.2289 97.5389 75.4635 97.5389 48.6147L97.5389 48.6143L146.153 48.6143Z" fill="#2462A8"/>
<path fill-rule="evenodd" clip-rule="evenodd" d="M146.153 2.125e-06L146.153 48.6146C146.153 48.6146 146.153 48.6146 146.153 48.6146C119.304 48.6146 97.5389 26.8493 97.5389 0.000415802L97.5389 0L146.153 2.125e-06Z" fill="#1D518B"/>
<path fill-rule="evenodd" clip-rule="evenodd" d="M97.5356 48.6142L48.921 48.6142C48.921 48.6142 48.921 48.6141 48.921 48.6141C48.921 21.7653 70.6863 -2.34724e-06 97.5352 0L97.5356 1.74077e-09L97.5356 48.6142Z" fill="#1D518B"/>
<path fill-rule="evenodd" clip-rule="evenodd" d="M48.9237 97.4999L0.309082 97.4999C0.309082 97.4999 0.309082 97.4999 0.309082 97.4999C0.309084 70.651 22.0744 48.8857 48.9233 48.8857L48.9237 48.8857L48.9237 97.4999Z" fill="#2462A8"/>
<path fill-rule="evenodd" clip-rule="evenodd" d="M146.153 97.2292C146.153 97.2292 146.153 97.2292 146.153 97.2292C119.305 97.2292 97.5394 118.994 97.5389 145.842L146.153 145.842L146.153 97.2292Z" fill="#1D518B"/>
<path fill-rule="evenodd" clip-rule="evenodd" d="M146.153 97.2292C146.153 97.2292 146.153 97.2292 146.153 97.2292C119.305 97.2292 97.5394 118.994 97.5389 145.842L146.153 145.842L146.153 97.2292Z" fill="#1D518B"/>
<path fill-rule="evenodd" clip-rule="evenodd" d="M0.309196 97.2285C0.309196 97.2285 0.309196 97.2286 0.309196 97.2286C0.309198 124.077 22.0739 145.842 48.9223 145.843L48.9223 97.2285L0.309196 97.2285Z" fill="#1D518B"/>
<path fill-rule="evenodd" clip-rule="evenodd" d="M146.153 97.2278C173.001 97.2272 194.766 75.4622 194.766 48.6138L146.153 48.6138L146.153 97.2278Z" fill="#1D518B"/>
<path fill-rule="evenodd" clip-rule="evenodd" d="M243.384 97.2284C243.384 97.2284 243.384 97.2285 243.384 97.2286C243.384 124.077 265.149 145.843 291.997 145.843L291.997 97.2284L243.384 97.2284Z" fill="#1D518B"/>
<path fill-rule="evenodd" clip-rule="evenodd" d="M243.386 97.2277C270.234 97.2277 292 75.4625 292 48.6138L243.386 48.6138L243.386 97.2277Z" fill="#1D518B"/>
<path fill-rule="evenodd" clip-rule="evenodd" d="M243.381 -0.000110046C243.381 -0.000110046 243.381 -0.000110047 243.381 -0.000110047C216.532 -0.000110367 194.767 21.7648 194.767 48.6133L243.381 48.6133L243.381 -0.000110046Z" fill="#2462A8"/>
<path fill-rule="evenodd" clip-rule="evenodd" d="M194.77 194.457L194.77 145.843C194.771 145.843 194.771 145.843 194.772 145.843C221.62 145.843 243.386 167.608 243.386 194.457L194.77 194.457Z" fill="#1D518B"/>
<path fill-rule="evenodd" clip-rule="evenodd" d="M291.999 145.842C265.151 145.843 243.386 167.608 243.386 194.456L291.999 194.456L291.999 145.842Z" fill="#2462A8"/>
</svg>
