<svg width="257" height="256" viewBox="0 0 257 256" fill="none" xmlns="http://www.w3.org/2000/svg">
<path fill-rule="evenodd" clip-rule="evenodd" d="M192.607 127.998C192.607 127.998 192.607 127.999 192.607 127.999C192.607 163.344 163.955 191.997 128.61 191.997L128.61 127.998L192.607 127.998Z" fill="#F05E00"/>
<path fill-rule="evenodd" clip-rule="evenodd" d="M64.6065 255.995C64.6065 255.995 64.6065 255.995 64.6065 255.995C64.6065 220.65 35.9546 191.997 0.610352 191.996L0.610363 255.995L64.6065 255.995Z" fill="#2A72C7"/>
<path fill-rule="evenodd" clip-rule="evenodd" d="M64.6074 191.996L64.6074 127.998C99.9525 127.998 128.605 156.651 128.605 191.996L64.6074 191.996Z" fill="#F2BA01"/>
<path fill-rule="evenodd" clip-rule="evenodd" d="M64.6082 63.9988L64.6082 127.998C64.6081 127.998 64.608 127.998 64.6079 127.998C29.2625 127.998 0.609373 99.3446 0.609375 63.9991L0.609375 63.9988L64.6082 63.9988Z" fill="#F05E00"/>
<path fill-rule="evenodd" clip-rule="evenodd" d="M64.6082 127.998C64.6081 127.998 64.608 127.998 64.6079 127.998C29.2627 127.998 0.609717 156.651 0.609375 191.996L64.6082 191.996L64.6082 127.998Z" fill="#F2BA01"/>
<path fill-rule="evenodd" clip-rule="evenodd" d="M64.6084 63.9989L64.6084 127.997C99.9531 127.997 128.605 99.3438 128.605 63.9989L64.6084 63.9989Z" fill="#F05E00"/>
<path fill-rule="evenodd" clip-rule="evenodd" d="M192.608 127.998C192.608 127.998 192.608 127.998 192.608 127.998C192.608 163.343 221.261 191.996 256.605 191.997L256.605 127.998L192.608 127.998Z" fill="#F05E00"/>
<path fill-rule="evenodd" clip-rule="evenodd" d="M192.611 63.999L192.611 127.997C192.611 127.997 192.611 127.997 192.611 127.997C227.956 127.997 256.609 99.3444 256.609 63.999L192.611 63.999Z" fill="#F05E00"/>
<path fill-rule="evenodd" clip-rule="evenodd" d="M192.605 63.9984L192.605 -5.64573e-05C192.605 -5.64573e-05 192.605 -5.64573e-05 192.605 -5.64573e-05C157.26 -5.68788e-05 128.607 28.653 128.606 63.9984L192.605 63.9984Z" fill="#2A72C7"/>
<path fill-rule="evenodd" clip-rule="evenodd" d="M128.61 255.995L128.61 191.996C128.611 191.996 128.611 191.996 128.612 191.996C163.957 191.996 192.61 220.65 192.61 255.995L192.61 255.995L128.61 255.995Z" fill="#F05E00"/>
<path fill-rule="evenodd" clip-rule="evenodd" d="M256.607 255.995L256.607 191.997C221.263 191.997 192.61 220.65 192.61 255.995L256.607 255.995Z" fill="#2A72C7"/>
</svg>
